<svg xmlns="http://www.w3.org/2000/svg" viewBox="0 0 1000 600">
  <path fill="#9ACD32" d="M720,350c0,0-175,50-375,0c-200-50-375,0-375,0v300h1000V350z"/>
  <path fill="#87CE3A" d="M645,375c0,0-150,40-300,0c-150-40-300,0-300,0v250h900V375z"/>
  <path fill="#7CBC41" d="M570,400c0,0-125,30-250,0c-125-30-250,0-250,0v200h800V400z"/>
  <path fill="#C2E000" d="M495,425c0,0-100,20-200,0c-100-20-200,0-200,0v150h700V425z"/>
  <path fill="#B4D300" d="M420,450c0,0-75,10-150,0c-75-10-150,0-150,0v100h600V450z"/>
  <path fill="#FFF" d="M200,250a50,50 0 1,0 100,0a50,50 0 1,0 -100,0z"/>
</svg>